<svg width="187" height="25" viewBox="0 0 187 25" fill="none" xmlns="http://www.w3.org/2000/svg">
<path fill-rule="evenodd" clip-rule="evenodd" d="M183.245 17.2404C182.739 16.1104 181.559 15.293 180.355 15.293C180.066 15.293 179.223 15.293 178.453 15.7738C178.91 15.0045 180.259 13.5609 181.993 12.5281L183.245 13.4898V17.2404ZM185.028 9.21026C184.353 10.4124 182.788 11.5905 181.921 12.2636L180.813 11.3981V7.8158C181.247 8.7765 182.306 9.59494 183.462 9.59494C184.136 9.59494 184.498 9.47373 185.028 9.21026ZM186.111 12.2396L184.16 10.773C185.461 9.64303 185.967 8.12736 185.967 7.09454C185.967 6.94928 185.943 6.68582 185.918 6.44439H185.678C185.485 6.97432 185.1 7.43113 184.305 7.43113C183.534 7.43113 182.98 6.99837 182.499 6.46843L177.947 8.9448V12.6243L179.633 13.9466C177.923 15.4613 177.61 16.5192 177.61 17.2885C177.61 18.2983 178.067 19.0196 178.934 19.3562L179.055 19.1398C178.838 18.9474 178.645 18.8272 178.645 18.3704C178.645 18.0338 179.055 17.553 179.825 17.553C180.813 17.553 181.415 18.2252 181.728 18.5868C181.728 18.5618 186.111 15.9662 186.111 15.9662V12.2396ZM171.806 13.1813V8.22853L171.974 8.10732L174.19 11.5945L171.806 13.1813ZM176.863 14.8402L174.383 16.7646L171.806 14.744V13.5419L176.598 10.3443V10.199L174.214 6.54457L168.988 9.33549V16.1866L172.48 18.711L177.056 15.1047L176.863 14.8402ZM168.073 16.3789L167.35 16.8598L166.267 15.874V9.02195L167.302 8.25259L167.134 8.03521L166.243 8.70939L163.931 6.56862L160.944 8.68535L158.656 6.56862L155.718 8.66031L153.912 6.56862L151.022 8.58918L151.167 8.85365L151.889 8.3718L152.877 9.45371V15.9942L152.082 16.7876L154.394 18.7341L156.633 16.7155L155.718 15.85V9.02195L156.585 8.44393L158.151 9.88647V15.9942L157.38 16.7876L159.716 18.7341L161.908 16.7155L160.993 15.85V8.97286L161.763 8.46797L163.425 9.88647V15.8971L162.751 16.5953L165.111 18.7341L168.217 16.6193L168.073 16.3789ZM151.215 16.4991L150.444 17.004L149.457 16.0183V9.04499L150.42 8.32472L150.227 8.08429L149.481 8.66031L147.723 6.56862L144.833 8.58918L145.001 8.85365L145.724 8.3718L146.615 9.47875V16.0183L145.314 17.004L145.459 17.1964L146.133 16.7155L148.349 18.7341L151.383 16.7155L151.215 16.4991ZM148.132 1.56779L147.987 1.54475L145.965 3.25176V3.39502L147.674 5.31941H147.843L149.866 3.63644L149.842 3.51623L148.132 1.56779ZM135.874 13.6862L134.646 14.2872C133.947 13.3736 133.49 12.1475 133.49 10.4404C133.49 9.74222 133.562 8.87669 133.779 8.27563L135.898 7.33897L135.874 13.6862ZM144.664 2.50644C144.664 0.510921 142.786 -0.0670987 141.22 0.00603033V0.319584C142.159 0.341622 142.882 0.655176 142.882 1.27928C142.882 1.71304 142.569 2.26502 141.63 2.26502C140.883 2.26502 139.438 1.83325 138.282 1.44757C137.006 1.01581 135.801 0.607091 134.79 0.607091C132.815 0.607091 131.322 2.07368 131.322 3.87586C131.322 5.34345 132.43 5.87138 132.887 6.06372L133.032 5.82429C132.743 5.63095 132.454 5.41557 132.454 4.83856C132.454 4.40579 132.839 3.70756 133.851 3.70756C134.766 3.70756 135.97 4.11728 137.56 4.57309C138.932 4.95777 140.45 5.3194 141.268 5.41557V8.54009L139.727 9.81534V9.93555L141.268 11.2809V15.5855C140.474 16.0423 139.558 16.1625 138.764 16.1625C137.295 16.1625 135.898 15.7779 134.79 14.5517L138.932 12.5552V5.655L133.851 7.91599C134.381 6.56861 135.44 5.68004 136.524 5.02989L136.452 4.78947C133.441 5.60791 130.696 8.37179 130.696 11.7858C130.696 15.874 134.019 18.9024 137.8 18.9024C141.894 18.9024 144.495 15.7057 144.447 12.3157L144.206 12.2907C143.604 13.59 142.737 14.8152 141.605 15.4653V11.2809L143.243 9.98363L143.219 9.83938L141.605 8.54009V5.41557C143.099 5.41557 144.664 4.40579 144.664 2.50644ZM116.753 15.9221L115.404 16.9319L115.573 17.1242L116.223 16.6674L118.487 18.7341L121.521 16.7155L121.353 16.4991L120.582 17.004L119.594 16.0183V0.414754H119.378L115.717 2.84304V3.05842C116.078 3.2748 116.753 3.37097 116.753 4.59813V15.9221ZM127.879 16.4991L124.435 18.7591L119.763 11.7137L123.062 6.59366L123.279 6.56862C123.665 6.9533 124.339 7.36202 124.965 7.36202C125.663 7.36202 126.145 6.97834 126.434 6.56862C126.434 6.56862 126.627 6.59366 126.627 6.56862C126.506 8.61323 125.134 9.76726 124.098 9.76726C123.038 9.76726 122.533 9.28541 121.979 8.94882L121.666 9.40562L126.723 16.8838L127.735 16.2587L127.879 16.4991ZM115.717 6.81004C115.717 6.83408 115.525 6.81004 115.525 6.81004C115.26 7.04946 114.923 7.21776 114.634 7.21776C114.248 7.21776 113.743 6.97833 113.502 6.66578H113.309L111.599 8.54009L109.841 6.66578L106.855 8.73343L106.999 8.97285L107.794 8.44392L108.83 9.54987V15.9221L107.481 16.9319L107.65 17.1242L108.3 16.6674L110.732 18.7341L113.887 16.6424L113.743 16.427L112.851 16.9559L111.671 15.8971V8.80455C112.177 9.35753 112.779 9.83938 113.478 9.83938C114.826 9.83938 115.573 8.34875 115.717 6.81004ZM100.69 15.2489V8.0352L103.242 9.86243V17.0762L100.69 15.2489ZM106.06 8.87668L102.785 6.54457L97.8718 9.35753V15.9462L96.8603 16.7646L97.0048 16.979L97.7995 16.3308L101.051 18.711L106.06 15.6576V8.87668ZM92.2363 16.0423C92.2363 16.8598 91.6824 17.6522 90.6227 17.6522C90.4541 17.6522 89.9725 17.6291 89.8039 17.6051V11.6907C90.0447 11.4733 90.4782 11.1367 91.0321 11.1367C91.5379 11.1367 91.9473 11.4262 92.2363 11.6907V16.0423ZM92.2363 11.33C91.9955 11.0896 91.562 10.8251 91.0321 10.8251C90.5023 10.8251 90.0207 11.1367 89.8039 11.33V8.68534C90.0207 8.87668 90.5023 9.21327 91.0321 9.21327C91.562 9.21327 91.9955 8.92576 92.2363 8.68534V11.33ZM92.2363 8.3247C91.9714 8.61321 91.5379 8.90071 91.0321 8.90071C90.4782 8.90071 90.0688 8.56412 89.8039 8.3247V3.82877L90.8395 3.13154L92.2363 4.40578V8.3247ZM96.3787 2.09671L95.3672 3.01132L93.1034 1.03884L89.804 3.49217V1.1831H89.4668L89.5391 17.557C89.2019 17.5089 88.359 17.3156 87.5883 17.1964L87.5161 3.51622C87.5161 2.50643 86.7936 1.11197 84.9874 1.11197C83.133 1.11197 81.9288 2.52947 81.9288 3.94798H82.2178C82.3141 3.34692 82.6272 2.81899 83.2293 2.81899C83.8555 2.81899 84.3853 3.20266 84.3853 4.55004V8.49199C82.5309 8.56412 81.4712 9.59895 81.4712 10.8722C81.4712 11.6656 81.8325 12.8918 83.133 12.9408L83.1811 12.7004C82.7476 12.5081 82.6513 12.2426 82.6513 12.0022C82.6513 11.4262 83.2052 11.1857 83.9759 11.1857H84.3371V17.4368C82.868 17.9417 82.1937 19.0236 82.1937 20.2497C82.1937 21.9327 83.5424 23.207 85.5172 23.207C86.914 23.207 88.1182 22.9665 89.3956 22.678C90.4301 22.4616 91.6825 22.2212 92.2845 22.2212C93.0552 22.2212 93.3924 22.5819 93.3924 23.1348C93.3924 23.8311 93.0793 24.0965 92.6699 24.2167L92.718 24.4572C94.3798 24.1446 95.3431 23.1579 95.3431 21.6682C95.3431 20.1295 93.874 19.2159 92.2364 19.2159C91.3935 19.2159 89.7317 19.4794 88.4794 19.7699C87.0826 20.0814 85.6617 20.2257 85.2282 20.2257C84.5298 20.2257 83.6638 19.8891 83.6638 18.9514C83.6638 18.11 84.3612 17.4368 86.0952 17.4368C87.0344 17.4368 88.0941 17.581 89.2501 17.8455C90.4783 18.11 91.562 18.4466 92.6217 18.4466C94.0908 18.4466 95.4153 17.9176 95.4153 15.7778V3.32488L96.5954 2.31409L96.3787 2.09671ZM77.6179 7.65052L76.8713 8.2045L74.9447 6.56861L72.705 8.58918L73.6201 9.4537V17.0762L71.1636 15.5134V9.31045L71.9594 8.75748L69.5982 6.56861L67.4067 8.58918L68.3228 9.4537V16.6915L68.0088 16.8838L65.8654 15.3691V9.28541C65.8654 7.89195 65.191 7.48223 64.3 6.93025C63.5534 6.47345 63.2162 6.08877 63.2162 5.39154C63.2162 4.81452 63.7942 4.47692 64.0832 4.30963C64.0591 4.28459 64.0591 4.0682 64.0591 4.0682C63.2885 4.04416 61.1451 4.88665 61.0969 6.83408C61.0728 7.84386 61.5545 8.27563 62.0602 8.75748C62.566 9.23732 63.0236 9.69413 63.0236 10.5356V16.3789L61.9398 17.2204L62.1084 17.4368L63.0958 16.6674L65.769 18.7591L68.2977 17.0521L71.0914 18.7591L76.4619 15.6336V8.85365L77.7865 7.89195L77.6179 7.65052ZM55.9923 13.1813V8.22853L56.1609 8.10732L58.3765 11.5945L55.9923 13.1813ZM61.0495 14.8402L58.569 16.7646L55.9921 14.744V13.5419L60.7846 10.3443V10.199L58.4004 6.54457L53.1744 9.33549V15.9702L52.1388 16.7646L52.3074 16.979L53.2466 16.2337L56.6664 18.711L61.2422 15.1047L61.0495 14.8402ZM53.7524 1.59283C53.7524 1.27927 53.6801 1.01581 53.5597 0.655172H53.3189C53.0058 1.49666 52.6204 1.95246 51.633 1.95246C50.7661 1.95246 50.0917 1.42453 49.7305 1.03885C49.7305 1.06289 46.8405 4.38074 46.8405 4.38074L47.0813 4.59813L47.9002 3.66047C48.5263 4.14032 48.9839 4.59813 50.3807 4.62117V13.037L44.4563 2.79395C43.9987 2.02459 43.228 0.870552 41.8071 0.870552C40.2177 0.870552 38.7486 2.24197 38.9412 4.55004H39.2302C39.3025 3.92494 39.6156 3.25175 40.314 3.25175C40.8679 3.25175 41.3736 3.77968 41.6386 4.26153V7.55535C39.8082 7.55535 38.6041 8.39683 38.6041 9.88646C38.6041 10.6558 38.9894 11.9541 40.2658 12.1945L40.2899 11.9781C40.1213 11.8099 39.9527 11.6185 39.9527 11.2809C39.9527 10.7289 40.3622 10.3673 41.1087 10.3673C41.2291 10.3673 41.5663 10.3913 41.6386 10.4164V14.6959C39.4952 14.719 37.8334 15.8971 37.8334 17.9176C37.8334 19.841 39.4952 20.7546 41.2291 20.6575L41.2532 20.418C40.1695 20.2978 39.5915 19.7929 39.5915 19.0957C39.5915 18.2292 40.2177 17.7734 41.0124 17.7734C41.8312 17.7734 42.5537 18.2783 43.0595 18.8553L45.9735 15.6096L45.7327 15.3922L44.9861 16.2337C43.8783 15.2489 43.2521 14.8873 41.9757 14.6959V4.57308L50.1399 18.7832H50.7179V4.62117C52.2833 4.525 53.7524 3.34692 53.7524 1.59283ZM29.3332 13.1813V8.22853L29.5018 8.10732L31.7174 11.5945L29.3332 13.1813ZM34.3908 14.8402L31.9102 16.7646L29.3333 14.744V13.5419L34.1258 10.3443V10.199L31.7416 6.54457L26.5156 9.33549V15.9702L25.48 16.7646L25.6486 16.979L26.5878 16.2337L30.0076 18.711L34.5834 15.1047L34.3908 14.8402ZM15.8948 15.9221L14.5462 16.9319L14.7148 17.1242L15.365 16.6674L17.6288 18.7341L20.6633 16.7155L20.5188 16.4991L19.724 17.004L18.7366 16.0183V9.09407L19.5555 8.492L21.2894 9.88647V16.0183C21.2894 19.841 20.4465 20.4661 18.7126 21.0912V21.3557C21.5784 21.4759 24.1553 20.5142 24.1553 15.6096V9.02194L25.0705 8.29966L24.9019 8.08428L24.1072 8.70939L21.6266 6.56861L18.7366 8.73343V0.414754H18.5199L14.9315 2.819V3.03438C15.2928 3.25176 15.8948 3.39501 15.8948 4.59813V15.9221ZM5.17798 13.6862L3.94974 14.2872C3.25133 13.3736 2.79375 12.1475 2.79375 10.4404C2.79375 9.74222 2.866 8.87669 3.08275 8.27563L5.20206 7.33897L5.17798 13.6862ZM13.9682 2.50644C13.9682 0.510921 12.0897 -0.0670987 10.5243 0.00603033V0.319584C11.4636 0.341622 12.186 0.655176 12.186 1.27928C12.186 1.71304 11.873 2.26502 10.9337 2.26502C10.1871 2.26502 8.74216 1.83325 7.58617 1.44757C6.30977 1.01581 5.10561 0.607091 4.09413 0.607091C2.11931 0.607091 0.62616 2.07368 0.62616 3.87586C0.62616 5.34345 1.73398 5.87138 2.19156 6.06372L2.33606 5.82429C2.04706 5.63095 1.75807 5.41557 1.75807 4.83856C1.75807 4.40579 2.1434 3.70756 3.15488 3.70756C4.07004 3.70756 5.2742 4.11728 6.86368 4.57309C8.23642 4.95777 9.75365 5.3194 10.5725 5.41557V8.54009L9.03116 9.81534V9.93555L10.5725 11.2809V15.5855C9.77773 16.0423 8.86258 16.1625 8.06783 16.1625C6.59877 16.1625 5.20195 15.7779 4.09413 14.5517L8.23642 12.5552V5.655L3.15488 7.91599C3.68471 6.56861 4.74437 5.68004 5.82811 5.02989L5.75586 4.78947C2.74547 5.60791 0 8.37179 0 11.7858C0 15.874 3.32347 18.9024 7.10451 18.9024C11.1986 18.9024 13.7996 15.7057 13.7514 12.3157L13.5106 12.2907C12.9085 13.59 12.0415 14.8152 10.9096 15.4653V11.2809L12.5473 9.98363L12.5232 9.83938L10.9096 8.54009V5.41557C12.4028 5.41557 13.9682 4.40579 13.9682 2.50644Z" fill="white"/>
</svg>